<svg width="370.0003677792264" height="113.28017653402868" viewBox="0 0 370.0003677792264 113.28017653402868" class="css-1j8o68f"><defs id="SvgjsDefs1381"></defs><g id="SvgjsG1382" featurekey="symbolFeature-0" transform="matrix(1.2666625802308173,0,0,1.2666625802308173,-6.333312901154087,-6.693044972469019)" fill="#a5ecd7"><g xmlns="http://www.w3.org/2000/svg"><g><path d="M88.565,33.927l-1.527-2.209c2.408-1.664,5.277-4.338,5.277-7.628c0-8.738-19.379-16.121-42.316-16.121    c-22.936,0-42.314,7.383-42.314,16.121c0,3.288,2.871,5.963,5.277,7.628l-1.527,2.209C7.226,31.015,5,27.613,5,24.09    C5,13.545,24.766,5.284,49.999,5.284C75.233,5.284,95,13.545,95,24.09C95,27.615,92.774,31.016,88.565,33.927z"></path><path d="M16.348,88.599l-2.547-0.848c8.48-25.444,0.086-51.284,0-51.542l2.547-0.848C16.71,36.448,25.119,62.284,16.348,88.599z"></path><path d="M84.501,94.716c-34.106-11.369-68.658-0.115-69.002,0l-0.85-2.547c0.354-0.119,35.756-11.648,70.701,0L84.501,94.716z"></path><path d="M83.652,88.599c-8.772-26.315-0.362-52.151,0-53.238l2.547,0.848c-0.086,0.258-8.481,26.098,0,51.542L83.652,88.599z"></path></g><g><path d="M66.715,67.077l-0.864-0.881c-2.778-2.832-4.097-5.882-3.916-9.065c0.299-5.287,4.672-8.895,4.858-9.045l0.938-0.762    l0.856,0.854c0.17,0.169,4.15,4.207,3.904,9.497c-0.147,3.185-1.772,6.083-4.827,8.614L66.715,67.077z M67.54,51.093    c-1.097,1.196-2.777,3.457-2.927,6.207c-0.11,2.058,0.659,4.093,2.292,6.063c1.834-1.798,2.81-3.749,2.905-5.813    C69.938,54.791,68.508,52.388,67.54,51.093z"></path><path d="M36.218,51.474c-5.061,0-8.868-3.756-9.028-3.916l-0.854-0.856l0.764-0.938c0.161-0.199,4.02-4.875,9.609-4.875    c2.981,0,5.842,1.323,8.501,3.934l0.881,0.865l-0.788,0.95C42.642,49.847,39.586,51.474,36.218,51.474z M30.106,46.505    c1.244,0.927,3.512,2.284,6.111,2.284c2.194,0,4.263-0.979,6.159-2.913c-1.846-1.529-3.747-2.303-5.669-2.303    C33.763,43.574,31.354,45.356,30.106,46.505z"></path><path d="M43.221,58.477c-5.062,0-8.868-3.756-9.028-3.916l-0.854-0.855l0.762-0.938c0.162-0.199,4.021-4.875,9.611-4.875    c2.98,0,5.842,1.324,8.5,3.933l0.881,0.864l-0.787,0.951C49.646,56.849,46.589,58.477,43.221,58.477z M37.112,53.511    c1.246,0.928,3.511,2.281,6.108,2.281c2.195,0,4.263-0.979,6.159-2.912c-1.846-1.529-3.747-2.304-5.668-2.304    C40.786,50.577,38.368,52.362,37.112,53.511z"></path><path d="M50.224,65.48c-5.062,0-8.868-3.756-9.027-3.916l-0.854-0.855l0.761-0.939c0.162-0.199,4.022-4.875,9.612-4.875    c2.981,0,5.841,1.324,8.501,3.934l0.88,0.864l-0.787,0.95C56.649,63.853,53.591,65.48,50.224,65.48z M44.116,60.515    c1.245,0.926,3.51,2.279,6.107,2.279c2.194,0,4.263-0.979,6.16-2.911c-1.846-1.53-3.748-2.304-5.669-2.304    C47.79,57.58,45.371,59.365,44.116,60.515z"></path><path d="M57.227,72.483c-5.06,0-8.869-3.757-9.028-3.917l-0.854-0.855l0.763-0.938c0.161-0.198,4.021-4.875,9.61-4.875    c2.981,0,5.841,1.323,8.5,3.934l0.881,0.864l-0.788,0.95C63.65,70.855,60.595,72.483,57.227,72.483z M51.113,67.514    c1.246,0.927,3.514,2.284,6.113,2.284c2.194,0,4.262-0.979,6.158-2.912c-1.845-1.53-3.747-2.305-5.668-2.305    C54.771,64.582,52.361,66.365,51.113,67.514z"></path><path d="M45.706,46.069l-0.864-0.88c-2.778-2.833-4.096-5.882-3.917-9.066c0.3-5.287,4.675-8.895,4.861-9.045l0.938-0.762    l0.854,0.854c0.17,0.169,4.15,4.207,3.905,9.497c-0.147,3.186-1.771,6.084-4.827,8.616L45.706,46.069z M46.532,30.085    c-1.097,1.196-2.777,3.457-2.926,6.207c-0.112,2.058,0.658,4.093,2.292,6.064c1.833-1.798,2.809-3.749,2.903-5.814    C48.931,33.782,47.499,31.379,46.532,30.085z"></path><path d="M41.153,43.335C41.153,43.335,41.153,43.335,41.153,43.335c-3.682,0-6.612-1.121-8.711-3.333    c-3.572-3.763-3.327-9.282-3.314-9.515l0.062-1.203l1.207-0.068c0,0,0.131-0.007,0.366-0.007c1.402,0,6.233,0.264,9.485,3.656    c2.14,2.231,3.143,5.316,2.979,9.168l-0.052,1.233l-1.232,0.052C41.674,43.33,41.411,43.335,41.153,43.335z M31.863,31.953    c0.149,1.586,0.687,4.272,2.539,6.215c1.46,1.532,3.526,2.361,6.146,2.47c-0.104-2.486-0.854-4.471-2.236-5.914    C36.352,32.68,33.484,32.109,31.863,31.953z"></path><path d="M52.71,53.072l-0.865-0.881c-2.779-2.832-4.096-5.882-3.916-9.066c0.299-5.287,4.673-8.895,4.859-9.045l0.938-0.762    l0.855,0.854c0.17,0.169,4.149,4.207,3.905,9.497c-0.147,3.186-1.771,6.084-4.826,8.616L52.71,53.072z M53.536,37.088    c-1.098,1.196-2.779,3.458-2.928,6.208c-0.111,2.058,0.659,4.093,2.293,6.063c1.832-1.798,2.809-3.749,2.904-5.814    C55.934,40.785,54.503,38.382,53.536,37.088z"></path><path d="M59.713,60.075l-0.865-0.881c-2.778-2.833-4.097-5.882-3.916-9.066c0.299-5.287,4.672-8.895,4.858-9.045l0.938-0.762    l0.856,0.854c0.17,0.169,4.15,4.207,3.904,9.497c-0.147,3.186-1.771,6.084-4.826,8.615L59.713,60.075z M60.535,44.095    c-1.099,1.197-2.775,3.456-2.925,6.203c-0.11,2.058,0.659,4.092,2.293,6.063c1.827-1.792,2.803-3.737,2.903-5.796    C62.941,47.818,61.504,45.399,60.535,44.095z"></path><rect x="35.944" y="55.73" transform="matrix(0.7071 0.7071 -0.7071 0.7071 57.0459 -23.5775)" width="42.079" height="2.685"></rect></g></g></g><g id="SvgjsG1383" featurekey="nameFeature-0" transform="matrix(2.749241162747947,0,0,2.749241162747947,134.00000065547016,-25.021708463196664)" fill="#ffffff"><path d="M7.2 11.440000000000001 l3.8 0 l0 28.52 l-3.8 0 l0 -15.08 l-3.4 0 l0 15.08 l-3.8 0 l0 -28.52 l3.8 0 l0 9.68 l3.4 0 l0 -9.68 z M26.947 11.440000000000001 l-5.36 17.36 l0 11.2 l-3.88 0 l0 -11.24 l-4.92 -17.32 l4 0 l2.92 10.28 l3.2 -10.28 l4.04 0 z M35.294 40.32 l-0.88 0 c-2.8 0 -5.04 -2.24 -5.04 -5.04 l0 -19.28 c0 -2.8 2.24 -5.08 5.04 -5.08 l0.88 0 c2.8 0 5.04 2.28 5.04 5.08 l0 2.04 l-3.92 0 l0 -2.04 c0 -0.68 -0.48 -1.16 -1.12 -1.16 l-0.88 0 c-0.6 0 -1.16 0.48 -1.16 1.16 l0 19.28 c0 0.6 0.56 1.16 1.16 1.16 l0.88 0 c0.64 0 1.12 -0.56 1.12 -1.16 l0 -10.4 l-2.24 0 l0 -3.88 l6.16 0 l0 14.28 c0 2.8 -2.24 5.04 -5.04 5.04 z M52.080999999999996 24.92 l-5.52 0 l0 11.28 l5.56 0 l0 3.8 l-9.36 0 l0 -28.56 l9.36 0 l0 3.8 l-5.56 0 l0 5.88 l5.52 0 l0 3.8 z M63.827999999999996 33.44 l0.16 -22.16 l3.84 0 l-0.24 28.88 l-5.96 0 l-3.24 -22.36 l0 22.36 l-3.84 0 l0 -28.88 l6.2 0 z M74.05499999999999 11.36 l0 28.48 l-3.8 0 l0 -28.48 l3.8 0 z M85.80199999999999 24.92 l-5.52 0 l0 11.28 l5.56 0 l0 3.8 l-9.36 0 l0 -28.56 l9.36 0 l0 3.8 l-5.56 0 l0 5.88 l5.52 0 l0 3.8 z"></path></g><g id="SvgjsG1384" featurekey="sloganFeature-0" transform="matrix(0.8195339518530923,0,0,0.8195339518530923,134,91.59090646367366)" fill="#ffffff"><path d="M2.74 20.12 c-1.52 0 -2.74 -1.24 -2.74 -2.74 l0 -2.18 l1.94 0 l0 2.18 c0 0.44 0.36 0.8 0.8 0.8 s0.78 -0.36 0.78 -0.8 l0 -1.9 l-3.52 -4.86 l0 -2.48 c0 -1.52 1.22 -2.76 2.74 -2.76 c1.5 0 2.72 1.24 2.72 2.76 l0 2.16 l-1.94 0 l0 -2.16 c0 -0.46 -0.34 -0.8 -0.78 -0.8 s-0.8 0.34 -0.8 0.8 l0 1.82 l3.52 4.86 l0 2.56 c0 1.5 -1.22 2.74 -2.72 2.74 z M21.9405 5.68 l0 1.92 l-2.38 0 l0 12.42 l-1.92 0 l0 -12.42 l-2.62 0 l0 -1.92 l6.92 0 z M35.941 20 l-0.72 -4.94 l-2.02 0 l-0.66 4.94 l-1.92 0 l2.16 -14.3 l2.58 0 l2.5 14.3 l-1.92 0 z M33.461 13.16 l1.48 0 l-0.76 -5.2 z M55.1215 5.720000000000001 l-2.68 8.68 l0 5.6 l-1.94 0 l0 -5.62 l-2.46 -8.66 l2 0 l1.46 5.14 l1.6 -5.14 l2.02 0 z M82.08249999999998 5.720000000000001 l1.9 0 l0 14.26 l-1.9 0 l0 -7.54 l-1.7 0 l0 7.54 l-1.9 0 l0 -14.26 l1.9 0 l0 4.84 l1.7 0 l0 -4.84 z M96.86299999999999 20.02 c-1.5 0 -2.7 -1.22 -2.7 -2.7 l0 -8.98 c0 -1.48 1.2 -2.68 2.7 -2.68 c1.48 0 2.68 1.2 2.68 2.68 l0 8.98 c0 1.48 -1.2 2.7 -2.68 2.7 z M96.86299999999999 7.5600000000000005 c-0.44 0 -0.78 0.36 -0.78 0.78 l0 8.98 c0 0.44 0.34 0.78 0.78 0.78 c0.42 0 0.78 -0.34 0.78 -0.78 l0 -8.98 c0 -0.42 -0.36 -0.78 -0.78 -0.78 z M115.52349999999998 5.68 l3.34 0 l0 14.28 l-1.88 0 l0 -11.3 l-1.78 11.34 l-0.74 0 l-0.18 -0.04 l-0.16 0.04 l-0.74 0 l-1.76 -11.34 l0 11.3 l-1.9 0 l0 -14.28 l3.36 0 l1.22 8.08 z M133.70399999999998 12.46 l-2.76 0 l0 5.64 l2.78 0 l0 1.9 l-4.68 0 l0 -14.28 l4.68 0 l0 1.9 l-2.78 0 l0 2.94 l2.76 0 l0 1.9 z M159.825 20.12 c-1.52 0 -2.74 -1.24 -2.74 -2.74 l0 -2.18 l1.94 0 l0 2.18 c0 0.44 0.36 0.8 0.8 0.8 s0.78 -0.36 0.78 -0.8 l0 -1.9 l-3.52 -4.86 l0 -2.48 c0 -1.52 1.22 -2.76 2.74 -2.76 c1.5 0 2.72 1.24 2.72 2.76 l0 2.16 l-1.94 0 l0 -2.16 c0 -0.46 -0.34 -0.8 -0.78 -0.8 s-0.8 0.34 -0.8 0.8 l0 1.82 l3.52 4.86 l0 2.56 c0 1.5 -1.22 2.74 -2.72 2.74 z M179.02549999999997 5.68 l0 1.92 l-2.38 0 l0 12.42 l-1.92 0 l0 -12.42 l-2.62 0 l0 -1.92 l6.92 0 z M193.02599999999998 20 l-0.72 -4.94 l-2.02 0 l-0.66 4.94 l-1.92 0 l2.16 -14.3 l2.58 0 l2.5 14.3 l-1.92 0 z M190.546 13.16 l1.48 0 l-0.76 -5.2 z M212.2065 5.720000000000001 l-2.68 8.68 l0 5.6 l-1.94 0 l0 -5.62 l-2.46 -8.66 l2 0 l1.46 5.14 l1.6 -5.14 l2.02 0 z M238.3075 20.12 c-1.52 0 -2.74 -1.24 -2.74 -2.74 l0 -2.18 l1.94 0 l0 2.18 c0 0.44 0.36 0.8 0.8 0.8 s0.78 -0.36 0.78 -0.8 l0 -1.9 l-3.52 -4.86 l0 -2.48 c0 -1.52 1.22 -2.76 2.74 -2.76 c1.5 0 2.72 1.24 2.72 2.76 l0 2.16 l-1.94 0 l0 -2.16 c0 -0.46 -0.34 -0.8 -0.78 -0.8 s-0.8 0.34 -0.8 0.8 l0 1.82 l3.52 4.86 l0 2.56 c0 1.5 -1.22 2.74 -2.72 2.74 z M256.308 20 l-0.72 -4.94 l-2.02 0 l-0.66 4.94 l-1.92 0 l2.16 -14.3 l2.58 0 l2.5 14.3 l-1.92 0 z M253.828 13.16 l1.48 0 l-0.76 -5.2 z M273.1085 10.62 l0 1.88 l-2.82 0 l0 7.46 l-1.88 0 l0 -14.24 l4.66 0 l0 1.9 l-2.78 0 l0 3 l2.82 0 z M287.949 12.46 l-2.76 0 l0 5.64 l2.78 0 l0 1.9 l-4.68 0 l0 -14.28 l4.68 0 l0 1.9 l-2.78 0 l0 2.94 l2.76 0 l0 1.9 z"></path></g></svg>